<svg 
id="Capa_1" 
data-name="Capa 1" 
xmlns="http://www.w3.org/2000/svg" 
viewBox="0 0 352.62 421.39">
<defs>
<style>
.cls-1,.cls-3{fill:#0071bc;}.cls-2{fill:#fff;}.cls-2,.cls-3{stroke:#000;stroke-miterlimit:10;stroke-width:1.45px;}
</style>
</defs>
<title>BOB_001</title>
<path id="cuerpo" class="cls-1" d="M79.26,269.41c-2.87-32.61-8.23-96,7.26-139.3,19.32-54.05,84.13-112.9,159.62-105.93,62.4,5.75,111.32,54.56,127.7,101.57,19.83,56.92-.57,131.06-7.26,152.37-5.83,18.56-12.84,33.76-11.61,56.59,2.16,40,27.86,71.23,49.34,91.43-18.71-7.35-40.86-19.81-56.59-42.09-31.37-44.42-19.29-102.53-26.12-103-4.69-.34-11.48,26.89-16,58.05A521.49,521.49,0,0,0,301.28,445c-4.81-25.33-11.12-62.68-16-108.83-3-28.32-4.56-52.05-8.71-52.24-4.93-.24-7.64,33.09-21.76,81.26a558.81,558.81,0,0,1-21.77,60.95,230.48,230.48,0,0,0-5.81-78.37,229.31,229.31,0,0,0-21.76-55.14,243,243,0,0,0-40.63,150.92A462.29,462.29,0,0,1,125.7,288.28a136.17,136.17,0,0,1-20.32,69.65,136.13,136.13,0,0,1-53.69,49.34,199.39,199.39,0,0,0,26.63-66.84C84.12,310.75,81,288.78,79.26,269.41Z" transform="translate(-51.69 -23.61)"/>
<circle id="ojo_blanco" class="cls-2" cx="177.04" cy="126.81" r="53.69"/>
<ellipse id="ojo_iris" class="cls-3" cx="177.04" cy="126.81" rx="10.16" ry="40.63"/>
</svg>